<?xml version="1.0" standalone="no"?>
<!DOCTYPE svg PUBLIC "-//W3C//DTD SVG 20010904//EN"
 "http://www.w3.org/TR/2001/REC-SVG-20010904/DTD/svg10.dtd">
<svg version="1.0" xmlns="http://www.w3.org/2000/svg"
 width="225.000000pt" height="225.000000pt" viewBox="0 0 225.000000 225.000000"
 preserveAspectRatio="xMidYMid meet">
<metadata>
Created by potrace 1.11, written by Peter Selinger 2001-2013
</metadata>
<g transform="translate(0.000000,225.000000) scale(0.100000,-0.100000)"
fill="#000000" stroke="none">
<path d="M0 1125 l0 -1125 1125 0 1125 0 0 1125 0 1125 -1125 0 -1125 0 0
-1125z m1510 679 c206 -119 378 -219 382 -223 4 -3 -50 -40 -120 -80 -70 -40
-200 -117 -289 -170 l-162 -96 -3 -114 -3 -115 -90 -52 -90 -52 -5 111 -5 111
-110 64 c-60 36 -150 89 -200 118 -49 29 -174 102 -277 161 -103 59 -184 111
-180 114 16 15 757 439 767 439 6 0 179 -97 385 -216z"/>
</g>
</svg>
